<svg id="Layer_1" data-name="Layer 1" xmlns="http://www.w3.org/2000/svg" xmlns:xlink="http://www.w3.org/1999/xlink" viewBox="0 0 87 117.43"><defs><style>.cls-1{fill:none;clip-rule:evenodd;}.cls-2{fill:#2f435b;}.cls-3{clip-path:url(#clip-path);}.cls-4{clip-path:url(#clip-path-2);}.cls-5{clip-path:url(#clip-path-3);}.cls-6{clip-path:url(#clip-path-4);}.cls-7{clip-path:url(#clip-path-5);}.cls-8{clip-path:url(#clip-path-6);}.cls-9{clip-path:url(#clip-path-7);}.cls-10{clip-path:url(#clip-path-8);}.cls-11{clip-path:url(#clip-path-9);}.cls-12{clip-path:url(#clip-path-10);}.cls-13{clip-path:url(#clip-path-11);}.cls-14{clip-path:url(#clip-path-12);}.cls-15{clip-path:url(#clip-path-13);}.cls-16{clip-path:url(#clip-path-14);}.cls-17{clip-path:url(#clip-path-15);}.cls-18{clip-path:url(#clip-path-16);}.cls-19{clip-path:url(#clip-path-17);}.cls-20{clip-path:url(#clip-path-18);}</style><clipPath id="clip-path" transform="translate(0 4.03)"><path class="cls-1" d="M45.32,62.73c-.15,0-.28-.12-.35-.09s-.4,0-.59,0a5.7,5.7,0,0,0-.74.17c-.28.1-.53.24-.8.36,0,0-.05,0-.06,0-.22.37-.63.61-.74,1.08a3.05,3.05,0,0,1-.36.78c-.15.26-.32.51-.49.76s-.23.28-.32.43-.27.5-.4.74-.14.44-.29.52a1.21,1.21,0,0,0-.43.5c-.26.38-.52.76-.76,1.15-.09.16-.11.36-.2.52a10.37,10.37,0,0,1-.54.91,3.06,3.06,0,0,0-.56,1.75c0,.6,0,1.21,0,1.81a5.27,5.27,0,0,0,.25,1.15c.12.38.3.74.45,1.12a.57.57,0,0,0,.41.37.42.42,0,0,1,.36.43c0,.73.08,1.45.09,2.18,0,.33,0,.67-.05,1a.42.42,0,0,1-.44.4.36.36,0,0,1-.43-.36,1.18,1.18,0,0,1,0-.42,1.47,1.47,0,0,0-.15-1c-.08-.24-.15-.48-.22-.72a5.6,5.6,0,0,1-.26-1,10.22,10.22,0,0,0-.44-1.62c0-.07-.08-.13-.13-.2a.75.75,0,0,0-.2.15,5,5,0,0,1-.55.71c-.3.26-.54.62-1,.67-.25,0-.38.23-.48.44a1.16,1.16,0,0,0-.15.26c-.06.26-.31.26-.49.34s-.52-.26-.48-.48a6.86,6.86,0,0,0,.16-.73c0-.42,0-.84.05-1.26A9,9,0,0,0,34,74.2a7.37,7.37,0,0,1,.13-1.14,5.9,5.9,0,0,0,0-.84c0-.08-.11-.22-.18-.22s-.3,0-.38.15a5.21,5.21,0,0,0-.28.52c-.2.44-.37.9-.55,1.35a.28.28,0,0,0,0,.12,5.52,5.52,0,0,1-.5,1.41A4.53,4.53,0,0,0,31.73,77a6,6,0,0,1-.29,1A6,6,0,0,0,31,79.43a5.3,5.3,0,0,1-.29,1.14c-.17.6-.37,1.19-.55,1.79-.05.18-.08.38-.14.57-.16.55-.35,1.09-.5,1.64-.09.34-.1.71-.16,1.06-.15.86-.31,1.71-.47,2.57-.07.45-.14.89-.22,1.33a5.57,5.57,0,0,0-.17.79c0,.52,0,1,0,1.56,0,.21-.06.43-.07.64,0,.4,0,.8-.07,1.2a.4.4,0,0,1,0,.19,2.31,2.31,0,0,0,0,1.25c0,.33,0,.68.06,1s.1.64.12,1,0,.78,0,1.18,0,1,0,1.52c0,.09,0,.18.05.28l.12,1.13c0,.27.05.53.08.79s.07.75.12,1.12a1.41,1.41,0,0,0,.11.51,1.84,1.84,0,0,1,.05.84c0,.31,0,.62,0,.93.05.56.14,1.12.21,1.68a1.49,1.49,0,0,1,.05.36.48.48,0,0,1-.1.33.42.42,0,0,1-.5,0c-.44-.24-.29-.64-.32-1s0-.65,0-1a.37.37,0,0,0,0-.11,2,2,0,0,1-.12-.81,14.2,14.2,0,0,0-.13-1.45c0-.4-.09-.8-.14-1.21-.08-.72-.2-1.45-.23-2.18,0-.38-.16-.72-.17-1.08a9.89,9.89,0,0,1,.11-1.21,4.34,4.34,0,0,0-.08-1.44.32.32,0,0,1,0-.09c0-.53.05-1,.07-1.58,0-.22,0-.43,0-.65s0-.66,0-1A4.25,4.25,0,0,1,27.69,92a7.17,7.17,0,0,0,.06-1A8.65,8.65,0,0,1,28,88.52a15.11,15.11,0,0,0,.32-1.76c.07-.4.1-.82.17-1.23,0-.17.15-.33.19-.5s0-.52.09-.77.21-.6.31-.9c0-.13,0-.26.07-.38.15-.59.31-1.18.48-1.76.12-.41.24-.82.37-1.23l.3-.95c.22-.69.44-1.38.64-2.07.11-.37.17-.74.28-1.11a2.91,2.91,0,0,1,.29-.62A3.52,3.52,0,0,0,32,74.18c.11-.37.2-.74.31-1.11s.22-.72.34-1.08a2,2,0,0,1,.21-.32,15.77,15.77,0,0,0,.83-1.5,14.91,14.91,0,0,0,.47-1.52c.07-.21.17-.41.24-.63.14-.46.26-.94.4-1.4a1.56,1.56,0,0,0,.1-.81,4.23,4.23,0,0,1,0-1.12A15.91,15.91,0,0,0,35,62.62c0-.43,0-.86-.06-1.28s-.09-.68-.13-1a.5.5,0,0,0-.52.35c-.22.5-.39,1-.59,1.53-.12.28-.28.54-.4.82a2.16,2.16,0,0,0-.31.88c0,.09-.08.18-.13.27l-.36.77a2.55,2.55,0,0,0-.13.29l-.29.77c-.09.22-.19.44-.28.65l-.27.65c-.12.26-.25.52-.36.79s-.16.52-.26.78c-.17.46-.35.91-.53,1.37-.08.24-.15.48-.24.72s-.32.74-.45,1.12-.2.69-.3,1c-.17.54-.35,1.09-.51,1.63-.11.35-.19.71-.28,1.06,0,.1-.05.21-.08.32a.4.4,0,0,1-.35.31.41.41,0,0,1-.41-.32c-.09-.35-.32-.43-.63-.46-.14,0-.37,0-.4-.11a1.14,1.14,0,0,1-.1-.63c0-.23.2-.44.27-.68a10.23,10.23,0,0,0,.23-1.1,5.71,5.71,0,0,1,.48-1.5,2.75,2.75,0,0,0,.21-.91A3.45,3.45,0,0,1,28.31,69a3,3,0,0,0,.19-.45c.16-.35.34-.7.5-1l.38-.84c.09-.22.19-.44.27-.66s.22-.58.34-.86a3.48,3.48,0,0,1,.2-.38.41.41,0,0,0,0-.09l.51-1.46c.11-.31.24-.6.37-.9.21-.49.43-1,.65-1.47.14-.32.28-.63.4-1s.32-1,.49-1.43a9,9,0,0,1,.48-1.19A9.51,9.51,0,0,0,33.73,56c.1-.33.17-.67.28-1a2.61,2.61,0,0,1,.28-.52.75.75,0,0,0,0-.71,3.83,3.83,0,0,1-.38-1.06c0-.23-.24-.33-.48-.38-.39-.09-.77-.23-1.15-.35s-.69-.51-1.13-.61c-.13,0-.25-.17-.36-.26-.34-.26-.66-.55-1-.78-.12-.08-.34,0-.51,0s-.35.11-.52.14-.35,0-.39-.17a.57.57,0,0,1,.08-.42c.17-.29.5-.34.79-.45a5.38,5.38,0,0,0,1.3-.63,1.61,1.61,0,0,1,.4-.17,2,2,0,0,0,.4-.17,3.47,3.47,0,0,1,1.24-.3c.19,0,.38-.09.58-.12s.54-.1.82-.14a1,1,0,0,0,.25-.06,4,4,0,0,0,1.08-.47.28.28,0,0,1,.18-.06,2,2,0,0,0,1-.42,2.7,2.7,0,0,1,.63-.19l.37-.07a.49.49,0,0,0,.42-.47c0-.28,0-.55,0-.82,0-.5-.32-.75-.7-1-.06,0-.13-.06-.16-.1a4.42,4.42,0,0,0-.84-.78l0-.05-.62-1.18c-.17-.32-.36-.64-.51-1a5.05,5.05,0,0,1-.25-.84c-.06-.31-.1-.63-.13-.95s0-.65,0-1a1.15,1.15,0,0,0-.41-1.1.91.91,0,0,1-.3-.52c-.11-.46.05-.61.53-.53a4.62,4.62,0,0,1,1,.41c.16.07.32.12.48.2l.84.46a3,3,0,0,0,.37.16c.24.12.46.26.71.36a.41.41,0,0,0,.57-.37,8.29,8.29,0,0,0,0-1,1,1,0,0,0-.12-.41c-.26-.42-.13-.88-.17-1.32s-.09-1-.14-1.52-.11-.79-.17-1.18c0-.19-.11-.38-.13-.57a5.63,5.63,0,0,0-.24-1.41,2.81,2.81,0,0,1,0-.71,11.69,11.69,0,0,0-.08-1.19,10.94,10.94,0,0,1-.25-1.41,5.81,5.81,0,0,0-.22-1.07c0-.25-.08-.5-.1-.75s0-.51,0-.76a1.51,1.51,0,0,0-.13-.33h-.07a.72.72,0,0,0-.11.19c-.12.37-.22.74-.36,1.1s-.3.7-.43,1.06-.28.86-.43,1.29a1.59,1.59,0,0,1-.22.35c-.1.14-.22.27-.31.42a.84.84,0,0,1-1.12.25,2.66,2.66,0,0,0-.52-.23.64.64,0,0,1-.42-.63c0-.34,0-.69,0-1s0-.95.06-1.43a3,3,0,0,0,0-.67,2,2,0,0,1,.08-.8c.12-.47.22-1,.33-1.42a.91.91,0,0,1,.07-.25,8.62,8.62,0,0,0,.35-1.3.12.12,0,0,0,0-.13.22.22,0,0,0-.16,0,1.44,1.44,0,0,0-.22.27c-.18.32-.34.66-.54,1s-.41.56-.6.85-.16.34-.26.5-.23.35-.33.53-.28.63-.43.93-.33.66-.5,1-.37.76-.57,1.14-.34.62-.49.93a6,6,0,0,0-.39,1,1.15,1.15,0,0,1-1.09.92.52.52,0,0,1-.36-.14,1.14,1.14,0,0,0-.61-.28c-.22,0-.28-.15-.29-.36A5.92,5.92,0,0,1,27,26.72c.11-.31.12-.64.22-1,.18-.59.39-1.17.59-1.75l0-.11c-.2-.12-.3,0-.41.13-.3.29-.58.62-.9.89-.49.42-1,.82-1.5,1.22a.58.58,0,0,1-.63,0,.65.65,0,0,1-.35-.62c0-.14.11-.22.27-.23a2.64,2.64,0,0,0,.63-.05,1.12,1.12,0,0,0,.33-.22,4.83,4.83,0,0,0,.68-.51,6,6,0,0,0,.46-.63,2.36,2.36,0,0,1,.49-.55A8.26,8.26,0,0,0,28,22.19a2.16,2.16,0,0,1,.29-.31c.54-.34.69-.93,1-1.42.2-.33.39-.67.58-1a6.12,6.12,0,0,0,.31-.56.69.69,0,0,0,0-.2c-.08,0-.17-.05-.23,0-.22.11-.43.25-.64.38a5.56,5.56,0,0,1-.9.55,9,9,0,0,0-2,1.18,1.31,1.31,0,0,1-.36.21,2.63,2.63,0,0,0-1.46,1.43,8.46,8.46,0,0,0-.5.94,6.82,6.82,0,0,0-.27,1.08.59.59,0,0,0,.05.29.35.35,0,0,1-.36.52c-.41,0-.63-.24-.52-.62a5.31,5.31,0,0,1,.44-1.52.89.89,0,0,0,.12-.4c0-.18-.06-.26-.25-.23a4.52,4.52,0,0,1-.73.16,1.57,1.57,0,0,1-.64-.11c-.42-.16-.47-.33-.3-.75.06-.14.07-.3.12-.45s.06-.26.14-.28c.28-.1.32-.38.49-.56.36-.37.71-.74,1-1.12s.37-.51.6-.72c.39-.36.82-.68,1.23-1s.59-.44.87-.68c.07-.06.08-.19.12-.29a1.5,1.5,0,0,0-.35,0c-.49.11-1,.26-1.46.36a6.75,6.75,0,0,1-1.33.18A6.22,6.22,0,0,1,22,17c-.07,0-.13-.05-.19,0-.59.1-.64-.31-.74-.72s.21-1,.33-1.44a2.78,2.78,0,0,1,.16-.4c.21-.49.68-.71,1.07-1a4.73,4.73,0,0,1,.71-.45,7,7,0,0,1,.79-.34,8,8,0,0,0,1.3-.68,3.78,3.78,0,0,1,1-.31l1.09-.3a2.27,2.27,0,0,0,.25-.06c.15-.06.16-.16,0-.23s-.53-.24-.79-.39a8.67,8.67,0,0,1-.81-.53c-.35-.26-.68-.53-1-.81a4.54,4.54,0,0,1-.45-.52,1.24,1.24,0,0,1-.19-.26.68.68,0,0,1,.23-1c.27-.21.55-.4.83-.58a3.85,3.85,0,0,1,1.34-.71,4,4,0,0,1,2-.09c.49.14,1,.23,1.48.4s.68.35,1,.51l1.35.58a6.32,6.32,0,0,1,.56.33.82.82,0,0,0,.24.1c.14,0,.23-.06.17-.2s-.19-.35-.26-.53-.22-.58-.32-.87a6.22,6.22,0,0,0-.54-1.28,3,3,0,0,1-.29-1,5,5,0,0,1-.05-.87.65.65,0,0,1,.54-.72c.28-.1.54-.25.82-.37a1.27,1.27,0,0,1,.37-.1c.07,0,.18,0,.19.1a.29.29,0,0,1,0,.26,2.41,2.41,0,0,1-.73.69c-.24.11-.26.37-.26.59a1.73,1.73,0,0,0,.28,1.19.26.26,0,0,1,.05.12,4.34,4.34,0,0,0,.57,1.59c.12.27.19.57.32.83s.45.77.69,1.14a.72.72,0,0,0,.29.22,1.6,1.6,0,0,1,.7.8.31.31,0,0,1-.06.3.54.54,0,0,1-.41.06,1.05,1.05,0,0,0-1.19.19l-.14.11c-.36.27-.36.3-.19.72a.36.36,0,0,1-.12.42c-.12.12-.26.23-.14.45,0,.06-.06.22-.14.28a1.3,1.3,0,0,0-.35.49,1.58,1.58,0,0,1-.37.41l-.24.25,0,.07a1.22,1.22,0,0,1,.26-.06.58.58,0,0,1,.35.07s0,.21,0,.3a.93.93,0,0,1-.22.3q-.34.3-.72.57a.69.69,0,0,1-.39.12,1.67,1.67,0,0,0-.9.24c-.88.47-1.76.93-2.63,1.42a6.7,6.7,0,0,0-.71.35,11.3,11.3,0,0,0-1.56,1c-.38.38-.84.69-1.25,1.05a10.54,10.54,0,0,0-1,.94c-.35.4-.66.83-1,1.25-.13.19-.28.37-.39.57s0,.44.28.44a1.22,1.22,0,0,0,.79-.25l1-.74a17.16,17.16,0,0,1,1.48-.9c.43-.24.84-.53,1.26-.79s1.06-.66,1.6-1c.27-.15.57-.26.85-.41a5,5,0,0,0,.68-.39q.77-.59,1.5-1.2c.21-.19.4-.41.6-.62a.65.65,0,0,1,.18-.15l.63-.4c.19-.12.21-.22.08-.41a.58.58,0,0,1,.37-1c.07,0,.21,0,.23.07a3.61,3.61,0,0,1,.24.62.3.3,0,0,1-.15.38c-.05,0-.05.14-.08.22a.77.77,0,0,0,.27-.07c.11-.1.18-.27.31-.35a.43.43,0,0,1,.38,0c.27.24.54.12.8,0a5.17,5.17,0,0,0,.83-.38.53.53,0,0,1,.57,0,.4.4,0,0,0,.18.07,1.5,1.5,0,0,1,.8.16c.09.05.24,0,.35,0a.39.39,0,0,1,.46.06q.13.17.27,0c.09-.1.21-.23.09-.37a.44.44,0,0,0-.28-.14,1.88,1.88,0,0,1-1-.38.25.25,0,0,1,0-.22.59.59,0,0,1,.72-.18c.25.12.51.22.77.32s.4.13.59.22.14.23.1.37-.12.44-.2.71l.49-.07c.18,0,.32,0,.33.25a.42.42,0,0,0,.16.28.57.57,0,0,0,.56-.21.41.41,0,0,0,0-.34,4.32,4.32,0,0,0-.6-.61.3.3,0,0,1-.07-.41.24.24,0,0,1,.35-.1,4.59,4.59,0,0,1,.44.33,3.82,3.82,0,0,0,.48.34c.14.08.23,0,.28-.14a.87.87,0,0,1,.61-.46c.07,0,.22,0,.24.07a.34.34,0,0,1,0,.28,2.27,2.27,0,0,1-.31.31.19.19,0,0,0,.06.34c.21.09.4.21.6.31.72.39,1.46.76,2.17,1.18a4.31,4.31,0,0,1,1.22,1.11.57.57,0,0,1,.08.13,1.46,1.46,0,0,0,.42.63c.19.19.32.44.5.66a.35.35,0,0,0,.22.14,3.75,3.75,0,0,1,1.5.5c.52.26.72.24,1.08-.21a1.56,1.56,0,0,0,.46-1.05.32.32,0,0,0,0-.17l-.7-1a2.74,2.74,0,0,1-.29-.49,2,2,0,0,0-.65-.8c-.33-.25-.58-.61-.91-.84a12.14,12.14,0,0,0-1.71-1.23s-.09-.06-.14-.06a3.78,3.78,0,0,1-1.16-.47,9,9,0,0,0-.93-.24,4.81,4.81,0,0,1-.82-.32c-.28-.15-.4-.11-.43.19s-.11.51-.41.55a.38.38,0,0,1-.42-.17.79.79,0,0,1,0-.81,1.69,1.69,0,0,0,.19-.32.93.93,0,0,0-.37,0,3.54,3.54,0,0,0-.62.3,1.51,1.51,0,0,0-.23.21c-.14.13-.41.16-.5.06a.4.4,0,0,1,0-.53,1.13,1.13,0,0,1,.41-.28.28.28,0,0,0-.29-.31l-.37-.06c-.15,0-.23-.09-.21-.22a.78.78,0,0,0-.26-.61c-.06-.07-.14-.21-.11-.25a.42.42,0,0,1,.28-.18.78.78,0,0,1,.89.56.79.79,0,0,0,.19.26c.15.17.38.3.29.61a2.73,2.73,0,0,0,.48-.41c.14-.17,0-.35-.21-.45s-.39-.2-.18-.56a.41.41,0,0,1,0-.09c.14-.3.31-.4.62-.3a1.57,1.57,0,0,0,1.07,0,5.19,5.19,0,0,1,1.05-.11c.33,0,.66,0,1-.09s.78-.2,1.17-.26a2.84,2.84,0,0,0,1.31-.73.59.59,0,0,1,.22-.12,3.1,3.1,0,0,0,1.41-.74c.31-.26.65-.5,1-.74,0,0,.12,0,.18,0A1.34,1.34,0,0,0,52.22,6,1,1,0,0,0,51.86,5a1,1,0,0,0-.81-.11A10.61,10.61,0,0,0,49.56,5c-.53.1-1,.28-1.55.43a4.28,4.28,0,0,0-.51.15,3.69,3.69,0,0,0-.64.29,7.89,7.89,0,0,0-.77.51c-.12.08-.22.19-.34.27s-.37.21-.55.32l-1.12.65A8.5,8.5,0,0,0,42.39,9a1.81,1.81,0,0,1-.94.48c-.14,0-.24-.06-.21-.19a1.14,1.14,0,0,1,.2-.48c.27-.31.57-.59.85-.88s.57-.56.83-.87a5.16,5.16,0,0,0,.44-.67s0-.11.07-.14c.41-.31.51-.82.8-1.21a2.51,2.51,0,0,1,.66-.72,2.14,2.14,0,0,0,.66-.77,5.1,5.1,0,0,1,.82-1c.29-.35.59-.7.9-1,.15-.17.34-.3.49-.47s.25-.32.21-.43-.31-.18-.48-.11a8.41,8.41,0,0,0-1.1.5,15.33,15.33,0,0,0-1.54,1,3.9,3.9,0,0,0-1.18,1c-.12.17-.37.26-.55.39a1.1,1.1,0,0,0-.22.21c-.18.23-.36.46-.52.7a3.35,3.35,0,0,0-.27.45c-.15.29-.3.59-.44.89s-.26.54-.38.81-.37.79-.55,1.19a.67.67,0,0,0,0,.72.53.53,0,0,1-.12.73,1.33,1.33,0,0,1-.89.47.88.88,0,0,0-.38.18c-.16.09-.25,0-.28-.13A.6.6,0,0,1,39.44,9s.07-.15,0-.19a.34.34,0,0,0-.2-.09.83.83,0,0,0-.22,0,.4.4,0,0,1-.52-.34c-.08-.39-.11-.79-.22-1.18a1.89,1.89,0,0,0-.53-1c-.1-.08-.12-.24-.18-.36a5.18,5.18,0,0,1-.3-.63,5.14,5.14,0,0,0-.84-1.31,2.9,2.9,0,0,0-1.24-1.05,1,1,0,0,1-.32-.26.3.3,0,0,1-.07-.28.4.4,0,0,1,.28-.19.6.6,0,0,1,.39.07,5.39,5.39,0,0,1,1,.62,9.16,9.16,0,0,1,.9,1.06c.25.3.43.29.6-.06s.24-.57.37-.85a6,6,0,0,1,.37-.65,4.32,4.32,0,0,1,.9-1.14,1.38,1.38,0,0,1,.54-.32,3.82,3.82,0,0,1,1.58,0,.73.73,0,0,1,.53.63c.07.4,0,.82.07,1.23a.48.48,0,0,0,.15.3s.2,0,.27-.11c.48-.43,1-.86,1.4-1.32A4.31,4.31,0,0,1,45,1c.35-.2.66-.46,1-.66A5.29,5.29,0,0,1,48-.34a1.25,1.25,0,0,1,1.1.5.66.66,0,0,1-.08.91,6.78,6.78,0,0,0-1.21,1.36,1.33,1.33,0,0,1-.35.36,2.36,2.36,0,0,0-.84.91,5,5,0,0,1-1.13,1.24,4.87,4.87,0,0,0-.4.5,5.42,5.42,0,0,0-.37.56.32.32,0,0,0,0,.28.2.2,0,0,0,.33,0,4,4,0,0,1,.51-.41,6.69,6.69,0,0,1,2-1c.58-.16,1.16-.35,1.73-.52a4.72,4.72,0,0,1,.64-.1c.57,0,1.15-.09,1.72-.07a2.71,2.71,0,0,1,1,.26,1.29,1.29,0,0,1,.57,1A1.74,1.74,0,0,1,52.5,7a5,5,0,0,1-1,.59,6.37,6.37,0,0,0-1.21.84,4.52,4.52,0,0,1-.71.41l-.11,0c0,.07-.16.16-.14.2a.3.3,0,0,0,.21.2c.45.11.91.16,1.36.28a16,16,0,0,1,1.79.54,8.42,8.42,0,0,1,1.1.6,9.12,9.12,0,0,1,1.07.67c.31.25.72.43.79.89,0,.22,0,.43,0,.65s0,.2,0,.3a.74.74,0,0,1-.46.71c-.33.09-.67.13-1,.21s-.69.2-1.05.27a12.13,12.13,0,0,1-1.23.21c-.32,0-.64,0-1,0s-.35-.08-.53-.08a.46.46,0,0,0-.33.12c-.05,0,0,.23.09.31.27.34.58.66.85,1s.28.46.43.69.25.31.35.48a2.7,2.7,0,0,1,.48,1.22.27.27,0,0,1,0,.15,6.74,6.74,0,0,1-1.28,1.68.7.7,0,0,1-.32.13,1.49,1.49,0,0,1-.89.06,1.55,1.55,0,0,0-.53,0c-.16,0-.3.11-.29.3,0,.34,0,.69.06,1a2.39,2.39,0,0,1-.22,1.44.93.93,0,0,1-.76.46A4.35,4.35,0,0,0,47,24a1.15,1.15,0,0,1-1-.07,4.25,4.25,0,0,1-1.11-.75,8.14,8.14,0,0,0-.67-.64,4.78,4.78,0,0,1-.81-.81c-.29-.34-.6-.65-.9-1a3.79,3.79,0,0,1-.69-.95,1.47,1.47,0,0,0-.43-.47c-.1-.09-.21-.05-.19.1a3.48,3.48,0,0,0,.12.56c.06.22.13.44.2.67a2.45,2.45,0,0,1,.08.29c.1.53.24,1.06.35,1.58a6.41,6.41,0,0,1,.15,2.27c-.08.46-.08.93-.16,1.39a1.79,1.79,0,0,1-1.56,1.5,4.5,4.5,0,0,0-.63.17.33.33,0,0,0-.26.34,3.75,3.75,0,0,1,0,.67,6.21,6.21,0,0,0,.18,1.72.76.76,0,0,1,0,.15c.06.82.11,1.64.17,2.46,0,.39.07.79.13,1.18s.12.52.18.78,0,.24,0,.36c0,.4,0,.8.08,1.19s.2,1,.28,1.55.12.83.15,1.24a.42.42,0,0,0,.24.32c.25.17.5.37.77.52a9,9,0,0,0,.83.4,4,4,0,0,1,1.25.75,2.18,2.18,0,0,0,1,.53,2.94,2.94,0,0,1,1.08.67,6.43,6.43,0,0,0,1.57,1.05,4.85,4.85,0,0,1,.75.53l1.46,1c.21.14.39.31.59.45l1,.76.13.12a12.52,12.52,0,0,0,1,1,3.39,3.39,0,0,0,1.5.69,5,5,0,0,1,1,.45,2.73,2.73,0,0,1,.55.32,6.43,6.43,0,0,1,1.43,1.69c.15.23.3.46.46.68,0,0,0,0,0,.08.07.38.38.61.59.9s.31.56.46.84.27.48.4.72.13.25.21.38l.61,1c.13.2.24.4.36.6s.06.12.09.17l.94,1.39c.14.21.24.45.4.65.31.39.67.75,1,1.15s.53.81.8,1.21.4.55.59.83c.36.54.72,1.07,1,1.62a2.61,2.61,0,0,1,.22.61c.18.49.37,1,.53,1.46a6.67,6.67,0,0,1,.19.8c.09.35-.13.65-.17,1a5.42,5.42,0,0,1-.13.79,1.42,1.42,0,0,1-.55.91.86.86,0,0,0-.46.54,1.79,1.79,0,0,1-.35.57c-.23.33-.49.65-.68,1a7.46,7.46,0,0,0-.37.88s-.07.08-.09.12-.14.21-.22.31l-.36.52a.83.83,0,0,0-.09.16,1.89,1.89,0,0,1-.4.75,5.67,5.67,0,0,0-.53.66,4.6,4.6,0,0,0-.42.63,11.29,11.29,0,0,0-1,1.89,1.81,1.81,0,0,1-.3.44.64.64,0,0,0-.11.24.84.84,0,0,1-.28.57c-.11.13-.17.3-.27.44s-.3.36-.46.54-.08.07-.1.11c-.14.34-.28.69-.43,1a1.22,1.22,0,0,1-.26.38c-.21.22-.28.54-.55.73s-.19.28-.28.43,0,0,0,.06c-.45.17-.45.68-.75,1a.66.66,0,0,0-.12.27,3.14,3.14,0,0,1-.52,1.09c-.12.17-.32.29-.44.46s-.21.41-.33.61a6.3,6.3,0,0,1-.37.53,3.27,3.27,0,0,0-.57.9,1.48,1.48,0,0,1-.21.37c-.23.37-.47.73-.71,1.09s-.39.54-.57.82-.31.36-.31.54c0,.37-.38.47-.44.79s-.16.6-.25.9a.82.82,0,0,1-.16.22,4,4,0,0,0-.28.32c-.27.4-.52.81-.77,1.21-.14.23-.28.46-.41.69-.32.57-.65,1.14-1,1.72-.12.25-.18.52-.3.77s-.19.3-.27.45-.2.4-.3.6a3.87,3.87,0,0,1-.27.43,2.2,2.2,0,0,0-.21.32c-.24.45-.47.91-.68,1.38a5.22,5.22,0,0,0-.35.93,5,5,0,0,0-.14.88c0,.4-.07.8-.08,1.2,0,.25.06.51.07.76s0,.41,0,.61a6.63,6.63,0,0,0,.29,2.16,10.06,10.06,0,0,1,.29,1.45c.07.33.18.66.25,1s.21.93.3,1.4a.41.41,0,0,1-.34.45.55.55,0,0,1-.56-.18l-.25-.27c-.11-.15-.07-.3-.06-.48a4.47,4.47,0,0,0-.13-1.54c-.15-.46-.31-.92-.44-1.39a6.06,6.06,0,0,1-.09-.73c-.05-.4-.1-.81-.16-1.21a2.65,2.65,0,0,1,0-.38c0-.43-.13-.84,0-1.27a1.21,1.21,0,0,0,0-.19,7.06,7.06,0,0,1,0-.8c0-.46.13-.92.2-1.38,0-.2,0-.4.07-.6s.09-.16.11-.24a5.84,5.84,0,0,0,.22-.82.87.87,0,0,1,.34-.64.93.93,0,0,0,.22-.3l.42-.69.34-.53c.1-.16.21-.31.3-.48s.3-.6.44-.91a5.34,5.34,0,0,1,.81-1.55,1,1,0,0,0,.15-.36c0-.11,0-.24.22-.27s0-.11.08-.16c.25-.41.5-.83.77-1.23.13-.19.32-.35.43-.55s.15-.43.25-.63.25-.42.36-.64a6.88,6.88,0,0,0,.32-.74,1.77,1.77,0,0,1,.45-.77l0,0c.16-.29.31-.59.48-.88a2.44,2.44,0,0,1,.32-.4,6.14,6.14,0,0,0,.81-1.34,1.7,1.7,0,0,1,.15-.22,3.51,3.51,0,0,0,.71-1.07,1.31,1.31,0,0,1,.31-.44,1.75,1.75,0,0,0,.48-1,.6.6,0,0,1,.25-.34,6.09,6.09,0,0,0,1-1.39c.09-.13.21-.23.31-.36a6,6,0,0,0,.88-1.56,1.85,1.85,0,0,1,.25-.32c.15-.23.29-.45.42-.69l.62-1.17c0-.07.1-.11.15-.16a1.9,1.9,0,0,0,.28-.37c.15-.35.26-.73.43-1.07s.42-.72.63-1.08l.39-.7s0-.1.08-.12.22-.29.3-.46a5.27,5.27,0,0,1,.46-.7c.13-.19.29-.36.41-.55s.27-.49.42-.72.37-.56.53-.85.23-.46.35-.69l.13-.2c.15-.3.29-.62.44-.92s.33-.57.48-.85.18-.33.25-.5a2.12,2.12,0,0,0,.21-.75,4.16,4.16,0,0,0-.19-1c-.07-.26-.16-.51-.25-.77s-.15-.4-.24-.6c-.2-.41-.38-.82-.61-1.21a10,10,0,0,0-.68-.93l-.5-.72a2.79,2.79,0,0,1-.28-.32c-.18-.27-.33-.55-.51-.82s-.23-.26-.34-.4c-.26-.33-.66-.54-.81-1-.09-.27-.36-.48-.43-.75a3.4,3.4,0,0,0-.61-1c-.11-.14-.23-.26-.33-.41s-.34-.54-.5-.81-.2-.36-.3-.53-.29-.48-.43-.73c-.27-.5-.52-1-.82-1.52s-.55-.8-.82-1.21c-.15-.21-.25-.45-.41-.65a3.68,3.68,0,0,0-.45-.43L55,49.89a2.75,2.75,0,0,0-.93-.52c-.12,0-.2-.17-.3-.26s-.14-.14-.21-.15a4.22,4.22,0,0,1-1.27-.26,4.55,4.55,0,0,0-.74-.11c-.53-.1-1-.23-1.57-.34-.22,0-.45,0-.68-.08-.56-.06-1.13-.11-1.69-.18-.25,0-.49-.11-.73-.16l-.6-.11-.68-.12-1-.2a3.83,3.83,0,0,0-.82-.1,13.38,13.38,0,0,1-2.37-.2,3,3,0,0,0-.59,0,7.71,7.71,0,0,1-1,0c-.17,0-.34-.08-.52-.11a7.68,7.68,0,0,0-1.66.09,1.72,1.72,0,0,0-.88.39.17.17,0,0,1-.13,0,1.1,1.1,0,0,0-.75.4.47.47,0,0,0-.12.57.61.61,0,0,1-.34.74,14.38,14.38,0,0,1-1.59.44,5.14,5.14,0,0,1-.88,0,1.24,1.24,0,0,0-.47.1,1.48,1.48,0,0,1-1,0c-.14,0-.26,0-.31.13s-.05.29.15.35c0,0,.07,0,.07,0,.05.22.22.29.39.39s.46.34.7.48a1.64,1.64,0,0,0,.46.13l1.59.22a1.43,1.43,0,0,1,.27.09,1.83,1.83,0,0,0,1,0,7.46,7.46,0,0,1,2.25-.27,10.29,10.29,0,0,1,1.23.14c.12,0,.22.12.34.15l1.21.31c.24.06.48.15.73.21s.49.09.74.13l.4.09.71.15c.27.06.53.12.8.16.63.1,1.27.17,1.9.27a8.1,8.1,0,0,1,.8.24,9.27,9.27,0,0,1,1,.29,1.67,1.67,0,0,1,1,.66c.12.22.21.46.35.67a6.68,6.68,0,0,0,.57.72c.48.59,1,1.18,1.45,1.76.06.08.16.13.23.21.35.39.7.79,1.06,1.18.14.15.31.28.44.44.27.32.52.66.8,1s.85.84,1.25,1.27c.19.2.31.45.49.64a7.93,7.93,0,0,0,1,1,3.69,3.69,0,0,1,.58.61,6.2,6.2,0,0,0,.45.44s0,0,.06.06a2.61,2.61,0,0,0,1,.93,5.06,5.06,0,0,1,.71.68.33.33,0,0,1,0,.46.38.38,0,0,1-.49.09,2.87,2.87,0,0,1-.4-.31,2.27,2.27,0,0,0-.25-.18c-.18-.12-.39-.19-.56-.32a6.54,6.54,0,0,1-1.3-1.22,5.25,5.25,0,0,0-1.11-1.15,6.45,6.45,0,0,1-.91-1c-.1-.12-.18-.25-.29-.36s-.33-.32-.5-.49-.29-.3-.43-.46l-.82-1c-.4-.46-.79-.94-1.2-1.4s-.79-.84-1.17-1.27c-.23-.25-.43-.52-.65-.78,0,0-.06-.1-.1-.11-.39-.16-.59-.53-.91-.77a1.35,1.35,0,0,0-.51-.28c-.34-.08-.65-.31-1-.25-.1,0-.21,0-.31,0s-.25,0-.38.06l-.32.05a1.82,1.82,0,0,0-.83.42c-.28.2-.58.38-.87.57a2.68,2.68,0,0,0-.28.18c-.21.18-.43.37-.63.56s-.68.67-1,1a15.09,15.09,0,0,0-1.17,1.09,3.59,3.59,0,0,0-.65.88A3,3,0,0,1,39.77,61c-.36.32-.54.74-.86,1.06a6.13,6.13,0,0,0-.48.73c-.2.27-.44.51-.65.77a1.2,1.2,0,0,0-.21.34,2.9,2.9,0,0,1-.72.91,2,2,0,0,0-.34.42c-.14.26-.25.53-.38.8a3.73,3.73,0,0,0-.23.37c-.12.3-.21.61-.31.91-.27.9-.37,1.84-.64,2.74-.08.27-.14.54-.2.81a.3.3,0,0,0,.14.38c.2.09.4.2.6.3a.58.58,0,0,1,.34.49,3.13,3.13,0,0,1,0,.61c0,.29,0,.59-.08.88s-.07.51-.11.77-.1.73-.14,1.1a3,3,0,0,0,0,.41.51.51,0,0,0,.06.2c.08,0,.18,0,.23-.09a2.74,2.74,0,0,0,.32-.36,4.89,4.89,0,0,0,.62-1.28,3.08,3.08,0,0,0,.18-1c0-.27,0-.55,0-.82a3.65,3.65,0,0,1,.46-1.82,4.94,4.94,0,0,0,.26-.57c.15-.27.34-.52.49-.8a1.79,1.79,0,0,0,.15-.56.54.54,0,0,1,.26-.43,1.32,1.32,0,0,0,.51-.51c.34-.58.74-1.12,1.11-1.68.13-.19.22-.42.34-.62s.23-.3.34-.45l.46-.68a.25.25,0,0,0,.06-.14c0-.45.37-.72.6-1.06a3.23,3.23,0,0,1,1.37-1A2,2,0,0,1,44.61,62a.65.65,0,0,0,.24,0,1.59,1.59,0,0,1,1.71.74,5.49,5.49,0,0,0,.65.72c.15.17.31.33.45.5a8.29,8.29,0,0,1,1,1.12,4.26,4.26,0,0,0,.89,1.09c.25.22.44.5.67.74s.57.56.84.85.55.59.82.89a.69.69,0,0,0,.13.11c.3.25.6.48.89.73s.23.29.36.42a5.2,5.2,0,0,0,.44.35c.29.24.6.48.88.74a.37.37,0,0,1,0,.31.35.35,0,0,1-.34.3.85.85,0,0,1-.63-.21c-.21-.2-.39-.43-.6-.63s-.41-.32-.61-.49l-.76-.69c-.26-.22-.52-.44-.76-.68s-.48-.51-.71-.77l-.47-.51-.1-.14a1.94,1.94,0,0,0-.78-.8.69.69,0,0,1-.25-.23c-.2-.29-.38-.6-.58-.88a12.37,12.37,0,0,0-.79-1c-.18-.2-.43-.34-.61-.54a6.82,6.82,0,0,1-.43-.62s0-.09-.09-.1a1.25,1.25,0,0,1-.75-.55m5.31-15.07.26-.12a.78.78,0,0,0-.17-.26c-.22-.18-.47-.34-.7-.52a2.26,2.26,0,0,1-.45-.42,2.16,2.16,0,0,0-.55-.58,10.67,10.67,0,0,0-1.38-.82,3.51,3.51,0,0,0-.65-.31,1.5,1.5,0,0,1-.61-.38c-.15-.12-.27-.29-.42-.41s-.27-.09-.38-.17A6.75,6.75,0,0,1,45,43.1a1.19,1.19,0,0,0-.61-.4,1.65,1.65,0,0,1-1-.47,4.28,4.28,0,0,0-1.7-1,1.51,1.51,0,0,1-.28-.15c-.21-.14-.41-.3-.64-.43s-.46-.06-.59.21a.88.88,0,0,1-.1.22c-.19.21-.32.5-.7.42a2.9,2.9,0,0,1-1-.57c-.29-.19-.53-.47-.83-.63a4.87,4.87,0,0,1-1.1-.86c-.33-.3-.51-.2-.65.11a.8.8,0,0,0-.09.42,2.78,2.78,0,0,0,.49,1.47,1.12,1.12,0,0,1,.16.28,4.57,4.57,0,0,0,1,1.55,3.86,3.86,0,0,0,1,.9c.32.16.51.5.88.64a2.66,2.66,0,0,1,.71.56,1.38,1.38,0,0,0,.73.32,2,2,0,0,1,.67.23c.19.11.33.3.52.41a2,2,0,0,0,.58.22c.26.05.53,0,.79.06.47,0,.93.1,1.4.15.23,0,.45,0,.68,0,.41.06.81.12,1.22.2l1.29.29a2.34,2.34,0,0,0,.38.09l1.71.14c.24,0,.47.09.75.14M35.8,64h0c0,.11,0,.23.06.34s.09.13.14.13a.24.24,0,0,0,.2-.08c.19-.28.36-.57.54-.85s.37-.51.56-.76.5-.61.73-.93a3,3,0,0,1,.84-1,.39.39,0,0,0,.08-.1,9,9,0,0,1,.89-1.46,5.09,5.09,0,0,1,.58-.65.81.81,0,0,0,.33-.67c0-.07,0-.13,0-.2,0-.38,0-.77,0-1.15a2.47,2.47,0,0,0-.11-.36c-.08-.33-.13-.68-.22-1-.17-.65-.36-1.3-.54-1.95s-.52-.85-1.15-1c-.16,0-.35,0-.52-.08s-.39,0-.5.28c-.21.56-.43,1.11-.64,1.67-.1.24-.16.49-.27.73s-.29.62-.44.93a6.21,6.21,0,0,0-.31.7c-.12.33-.2.67-.29,1a2.15,2.15,0,0,0-.11.55c0,.49,0,1,0,1.46s.06.81.1,1.21.08.61.07.91a6.81,6.81,0,0,0,0,1,12.54,12.54,0,0,1,0,1.37M48,20.84l.08,0A4.48,4.48,0,0,0,47.8,20,14.9,14.9,0,0,0,47,18.6a14.21,14.21,0,0,0-.83-1.2,5,5,0,0,0-1.67-1.17c-.53-.3-1.08-.54-1.61-.81a.51.51,0,0,0-.62.05,2.26,2.26,0,0,1-.45.31c-.25.13-.51.22-.76.34a.47.47,0,0,0-.22.65c.12.25.25.49.37.74s.32.76.76.92a.31.31,0,0,1,.1.12c.22.37.44.75.67,1.12a3.39,3.39,0,0,0,.38.53l1.62,1.72c.06.07.11.17.19.21.43.27.72.72,1.22.88.19.07.32.31.59.22s.57-.14.85-.22a.77.77,0,0,0,.62-.88c0-.27-.09-.54-.14-.81L48,20.84m-6.51,3.74,0,0c0-.1,0-.2,0-.3l-.09-.75a7.93,7.93,0,0,0-.14-.85c-.11-.44-.29-.87-.36-1.31a13.56,13.56,0,0,0-.35-1.43c-.08-.3-.2-.58-.29-.87s-.18-.51-.26-.76a3.59,3.59,0,0,0-.12-.35c-.12-.21-.26-.4-.38-.61a.31.31,0,0,0-.36-.19c-.23.05-.45.1-.69.13a.7.7,0,0,0-.6.37,2.33,2.33,0,0,0-.24,1c0,.26-.07.52-.11.78s0,.29,0,.43,0,.4,0,.6a10.36,10.36,0,0,0-.1,1.24c0,.59.13,1.17.2,1.76,0,.28.07.55.12.82s.14.64.22.95a1.86,1.86,0,0,0,.16.47c.2.38.43.74.65,1.11a.29.29,0,0,1,0,.1.53.53,0,0,0,.89.24,1.08,1.08,0,0,1,.81-.34.69.69,0,0,0,.64-.48c.21-.57.33-1.16.49-1.74m4.91-14.44v0c-.47.07-.93.16-1.4.19a3.12,3.12,0,0,0-1.4.55.28.28,0,0,0,0,.45.53.53,0,0,1,.14.12,1.36,1.36,0,0,0,.61.46c.54.14,1.06.33,1.59.52.26.09.5.24.76.33a7.67,7.67,0,0,1,1.92,1,1,1,0,0,0,.64.19,5.3,5.3,0,0,1,.69,0,10.93,10.93,0,0,0,2.68,0c.6-.09,1.19-.2,1.78-.33a.49.49,0,0,0,.38-.41,1,1,0,0,0-.32-.81,10.2,10.2,0,0,0-1-.81,3,3,0,0,0-.5-.26c-.16-.08-.33-.13-.48-.22a3.72,3.72,0,0,0-1.28-.5,4.88,4.88,0,0,1-.54-.18c-.33-.08-.65-.17-1-.22s-.62,0-.92-.08a3.38,3.38,0,0,0-1.1,0c-.42.09-.85.11-1.27.16M23.22,16.4l.89-.15c.3-.06.59-.15.89-.22l2.05-.39c.34-.07.68-.13,1-.22s.69-.23,1-.36.8-.34,1.19-.51a7.62,7.62,0,0,1,1.35-.65,1.25,1.25,0,0,0,.25-.09.33.33,0,0,0,.2-.44.42.42,0,0,1,.07-.39c.1-.16.32-.33,0-.52,0,0,0,0,0,0a.74.74,0,0,0-.64-.54c-.32,0-.64-.05-1-.05a5,5,0,0,1-.94,0,5.49,5.49,0,0,0-1.46.07c-.31,0-.63.17-.95.19a5.1,5.1,0,0,0-1.15.29l-.3.11c-.42.2-.82.45-1.25.61a4.24,4.24,0,0,0-1,.52c-.28.2-.59.37-.89.56-.12.08-.29.16-.34.29a13,13,0,0,0-.53,1.35.29.29,0,0,0,.25.38c.38.07.77.11,1.19.17m5.15-9.78-1,.08a.5.5,0,0,0-.19.1c-.24.16-.47.35-.73.49s-.51.2-.76.33-.35.21-.32.45a1.81,1.81,0,0,0,.51.95c.27.28.7.36.86.75l0,0c.28.15.56.31.85.44a6.69,6.69,0,0,0,1,.42,8.32,8.32,0,0,0,1.2.27c.7.09,1.41.15,2.11.22a2.68,2.68,0,0,0,.75,0c.36-.07.5-.44.72-.69A1.46,1.46,0,0,1,34,10c.46-.17.47-.5.16-.78s-.55-.45-.84-.67a.52.52,0,0,0-.13-.06c-.22-.07-.46-.08-.62-.3A.58.58,0,0,0,32.29,8c-.27-.09-.55-.17-.82-.28a4.89,4.89,0,0,0-1.29-.54A.84.84,0,0,1,30,7.1a3.74,3.74,0,0,0-1.59-.48m-.89,21.66h0s0,.08,0,.11a.5.5,0,0,0,.4.39.32.32,0,0,0,.4-.24c.19-.51.39-1,.61-1.5a8.28,8.28,0,0,1,.75-1.45,6.46,6.46,0,0,0,.5-1c.16-.35.33-.7.51-1s.33-.6.5-.89a2.29,2.29,0,0,1,.3-.5,5.26,5.26,0,0,0,.89-1.49,1.47,1.47,0,0,1,.21-.36c.19-.28.39-.56.57-.84a5.77,5.77,0,0,1,.4-.68,2.57,2.57,0,0,0,.62-.94c0-.18.17-.39,0-.55a2.2,2.2,0,0,0-.47-.27c-.12-.06-.26-.09-.38-.15s-.29-.22-.46,0a9.52,9.52,0,0,0-1.12,1.25c-.3.47-.68.88-1,1.34a10.06,10.06,0,0,0-.59,1.07c-.18.33-.34.67-.5,1-.07.13-.13.27-.19.41-.19.37-.4.73-.56,1.11s-.3.85-.45,1.28a7.47,7.47,0,0,0-.4,1.12,7.48,7.48,0,0,1-.25,1.16,3.28,3.28,0,0,0-.22.67c-.06.32-.07.66-.1,1m6-1.94h-.07c0,.42.09.85.16,1.27s.22.36.47.2a1.6,1.6,0,0,0,.78-1c.07-.29.13-.59.23-.88.19-.57.43-1.13.6-1.71s.27-1.08.39-1.63.16-.91.23-1.37.08-.68.12-1a2.22,2.22,0,0,1,0-.45,6.47,6.47,0,0,0,.31-1.37c0-.36,0-.56-.38-.72a1,1,0,0,0-1.21.45c-.13.38-.25.77-.36,1.15L34.28,21c-.12.45-.26.89-.38,1.34a8.84,8.84,0,0,0-.34,2c0,.36-.09.71-.11,1.06s0,.67,0,1m3.39,26.28c0-.17-.05-.29-.22-.33a.64.64,0,0,0-.75.58,1.1,1.1,0,0,1-.06.41,6.11,6.11,0,0,1-.35.67c-.08.14-.18.28-.25.42s-.09.26-.15.38-.19.35-.26.53-.19.58-.3.86c-.31.81-.6,1.63-.93,2.43s-.58,1.31-.87,2c-.09.19-.19.38-.26.57-.13.37-.23.75-.37,1.11-.26.65-.56,1.29-.82,1.94s-.57,1.44-.87,2.16-.63,1.41-.94,2.11a2,2,0,0,1-.12.37,2.63,2.63,0,0,0-.5.95c-.08.27-.19.53-.25.81a7.08,7.08,0,0,1-.2,1c-.15.36-.22.74-.35,1.1a9,9,0,0,0-.39,1.85c0,.11-.05.24.12.29s.24,0,.3-.18.1-.21.13-.32a5.08,5.08,0,0,0,.2-.74,1.2,1.2,0,0,1,.25-.71.29.29,0,0,0,.07-.16c.14-.44.26-.89.4-1.33s.44-.92.56-1.43a11.52,11.52,0,0,1,.49-1.47c.12-.35.26-.7.41-1s.28-.48.37-.73c.18-.47.3-1,.48-1.43a3.19,3.19,0,0,1,.31-.71,3.23,3.23,0,0,0,.43-.92,11.6,11.6,0,0,1,.51-1.07c.07-.16.1-.34.17-.5.22-.54.45-1.08.68-1.62.08-.18.16-.37.26-.55s.38-.59.52-.91.27-.76.41-1.14c.08-.23.16-.45.25-.67a15.66,15.66,0,0,1,.74-1.67,9.51,9.51,0,0,0,.48-1.21c.15-.41.33-.82.49-1.23l.18-.46M41.65,2.77c0-.21-.06-.36-.08-.51a3.5,3.5,0,0,0-.07-.45.34.34,0,0,0-.11-.18,1,1,0,0,0-1.21,0,4,4,0,0,0-1,1.65c0,.1-.09.19-.14.29s-.28.49-.39.75-.14.46-.24.68a.88.88,0,0,0,.1,1A2.47,2.47,0,0,1,39,7a4.13,4.13,0,0,0,.24.83.39.39,0,0,0,.59.16.9.9,0,0,0,.4-.53,6.41,6.41,0,0,1,.48-1.26,6.13,6.13,0,0,0,.67-1.53,15.76,15.76,0,0,0,.27-1.88M41,52.92c-.34,0-.37,0-.39.38a1.31,1.31,0,0,0,.12.64c.19.49.34,1,.52,1.48a2.6,2.6,0,0,1,.22.56,3.15,3.15,0,0,1,0,1.06.37.37,0,0,0,.11.33c.14.1.26,0,.35-.14l.68-.91a3.36,3.36,0,0,1,1.67-1.19c.18-.06.42-.06.55-.17a3.6,3.6,0,0,1,.91-.43l.8-.41s.05-.1.07-.15-.11-.06-.16,0a7.06,7.06,0,0,1-1.59-.2c-.23,0-.46-.13-.69-.17l-1.08-.19c-.26,0-.52-.12-.78-.16s-.54-.07-.81-.1L41.33,53,41,52.92M36.19,38.1a1.9,1.9,0,0,0,.59.54,2.39,2.39,0,0,1,.6.5,3.16,3.16,0,0,0,.53.5c.34.27.68.53,1,.78a.32.32,0,0,0,.41,0,.32.32,0,0,0,.1-.43.71.71,0,0,0-.51-.41.5.5,0,0,1-.25-.13,5,5,0,0,0-1.12-.7c-.22-.13-.42-.29-.64-.42s-.37-.4-.74-.23M38.94,33H39s0-.07,0-.1c0-.41-.06-.82-.11-1.23,0-.19-.07-.38-.09-.58s0-.39,0-.58a4.22,4.22,0,0,1-.07-.61,6.25,6.25,0,0,0-.22-1.72c0-.11-.08-.23-.21-.16a.31.31,0,0,0-.12.26c0,.53,0,1.06.08,1.58a2.73,2.73,0,0,0,0,.41c.08.43.17.86.25,1.28s.11.76.19,1.13a1.19,1.19,0,0,0,.18.33m-5.5,16,0,.1c.37-.11.74-.21,1.11-.34,0,0,.07-.17.1-.25s-.2-.11-.29-.09-.43.16-.66.21a1.93,1.93,0,0,1-.66.1,2.35,2.35,0,0,0-1.45.34.17.17,0,0,0-.08.13.16.16,0,0,0,.11.08c.32,0,.64,0,1,0s.56-.16.84-.24m5.92-12.91a.37.37,0,0,0-.2.48c.05.22.2.43,0,.66,0,0,0,.13,0,.19,0,.25,0,.49,0,.74a1.08,1.08,0,0,0,0,.36.34.34,0,0,0,.23.12s.11-.11.12-.17a5.76,5.76,0,0,0,0-.59.67.67,0,0,0,0-.32,1.61,1.61,0,0,1-.15-1,1.8,1.8,0,0,0-.08-.5M37,15.11,36.9,15c-.09.1-.21.18-.25.29a1,1,0,0,1-.41.56A2.36,2.36,0,0,0,36,16a.46.46,0,0,0-.13.21.25.25,0,0,0,.16.11,2.55,2.55,0,0,0,.55,0c.13,0,.2-.12.11-.28a.56.56,0,0,1,0-.36c.08-.18.19-.35.29-.53m-2.4.73c-.09.05-.22.09-.25.16s0,.18.08.26a.7.7,0,0,0,.14.16c.25.25.32.24.58,0s.08-.21,0-.3L34.86,16l-.25-.11M38,16.4c-.32.14-.63.26-.93.4-.06,0-.09.1-.13.15s.14.13.19.12c.33-.1.66-.22,1-.34,0,0,.12-.15.1-.18s-.13-.09-.21-.15M39.3,34.71a2.34,2.34,0,0,0,0-.3c0-.06-.08-.1-.12-.15s-.13.09-.15.16a.52.52,0,0,0,0,.25,4.71,4.71,0,0,0,.09.52c0,.05.06.09.09.14s.1-.09.11-.14a4.05,4.05,0,0,0,0-.48m.57-19.28a.62.62,0,0,0-.41.65c0,.08.07.16.1.24.08-.07.21-.12.23-.2s.05-.45.08-.69m-1.83,0a4.43,4.43,0,0,0-.5.29s0,.16-.06.25.2,0,.25,0a2.22,2.22,0,0,0,.28-.33s0-.08,0-.16M39.33,15l-.1,0a2.14,2.14,0,0,0-.28.32s0,.13,0,.2.2,0,.23-.05a3,3,0,0,0,.15-.42m-.19,31c-.12,0-.2-.25-.35-.08s0,.21,0,.23.25,0,.32-.15M35,52.93c-.06-.12.22-.27,0-.39-.13.15-.18.28,0,.39"/></clipPath><clipPath id="clip-path-2" transform="translate(0 4.03)"><path class="cls-1" d="M45.93,75.38l-.25-.47c-.09-.16-.19-.31-.27-.47s-.2-.49-.31-.73a2.22,2.22,0,0,0-.23-.43,4.11,4.11,0,0,1-.69-1.37,1.35,1.35,0,0,0-.35-.48c0-.05-.22,0-.31,0a3.61,3.61,0,0,0-.51.36,1.79,1.79,0,0,0-.27.28,1.56,1.56,0,0,0-.36.67c0,.14-.15.26-.2.39a1.16,1.16,0,0,0-.07.37c0,.2,0,.41-.06.62s-.06.65-.11,1a2,2,0,0,1-.16.53c-.13.26-.29.52-.42.78s-.13.38-.21.55a2.7,2.7,0,0,1-.42.79,2.48,2.48,0,0,1-.83.41.35.35,0,0,1-.26-.13.75.75,0,0,1,.07-.47c.11-.19.3-.32.43-.5a2.94,2.94,0,0,0,.34-.63,7.14,7.14,0,0,1,.32-.92,5.32,5.32,0,0,0,.28-.94c0-.12.05-.25.08-.38a1.57,1.57,0,0,0-.29-1.07c-.15-.23-.18-.4,0-.6s.51-.41.76-.61l.22-.17c.23-.2.48-.38.7-.59s.49-.53.73-.81a.8.8,0,0,1,.59-.3.5.5,0,0,1,.56.26c.09.2.18.39.26.59.12.36.21.74.36,1.09s.4.79.61,1.18c.11.2.25.38.36.58.21.38.42.76.62,1.15a1.52,1.52,0,0,1,.09.28c.08.27.15.54.23.8a.46.46,0,0,1-.15.47c-.12.14-.32.23-.42.38s-.38.31-.58.45-.44.26-.65.39l-.52.31s0,0,0,0a4.29,4.29,0,0,0-1,.43.28.28,0,0,1-.13,0,2.81,2.81,0,0,0-1,.55,4.56,4.56,0,0,0-.83.68c-.24.28-.56.42-.81.67a7,7,0,0,0-.88.92c-.13.19-.35.32-.48.5-.37.51-.71,1-1.07,1.54-.17.23-.38.43-.55.66s-.25.4-.38.59a.77.77,0,0,1-.19.17,1.42,1.42,0,0,0-.73.91.38.38,0,0,1-.08.17c-.31.42-.62.84-.92,1.27a3.06,3.06,0,0,0-.3.49c-.12.25-.22.52-.36.75a2.42,2.42,0,0,1-.49.52s-.22,0-.28-.06a.37.37,0,0,1-.12-.3,2.64,2.64,0,0,1,.23-.61c.17-.31.37-.59.55-.89s.36-.62.55-.92.37-.51.56-.76.47-.58.7-.88.24-.35.37-.52c.4-.59.8-1.18,1.21-1.76.1-.15.23-.28.34-.42.43-.54.85-1.09,1.31-1.6a6.58,6.58,0,0,1,.75-.63c.17-.15.32-.32.5-.46a12.27,12.27,0,0,1,1.38-1,11.64,11.64,0,0,1,1.42-.56,3.45,3.45,0,0,0,.32-.2c.26-.15.53-.26.78-.43a2.13,2.13,0,0,0,.49-.46,2.27,2.27,0,0,0,.32-.52,3.7,3.7,0,0,0,.14-.49"/></clipPath><clipPath id="clip-path-3" transform="translate(0 4.03)"><path class="cls-1" d="M41.5,13.88a.55.55,0,0,1-.54.62c-.21,0-.39-.17-.41-.47a1,1,0,0,0-.22-.62,1,1,0,0,1-.15-.4c-.08-.33-.21-.43-.5-.36-.08,0-.15.06-.22.07-.31.07-.51-.17-.45-.51a6.06,6.06,0,0,0,.09-.73c0-.23.19-.47.36-.45s.29.19.29.41a.53.53,0,0,0,.52.47l.34,0a.45.45,0,0,1,.45.46,4.89,4.89,0,0,0,.39,1.28c0,.09,0,.18,0,.21"/></clipPath><clipPath id="clip-path-4" transform="translate(0 4.03)"><path class="cls-1" d="M38.29,10.05a1.74,1.74,0,0,1,.32,0c.24,0,.39.1.39.25a.4.4,0,0,1-.25.42c-.15.08-.24.19,0,.3s.12.22,0,.34a.68.68,0,0,1-.6.15,3.19,3.19,0,0,1-.55-.29c-.15-.09,0-.17.06-.24s.07,0,.1,0c.2,0,.42-.11.38-.24s-.23-.19-.35-.29-.17-.12-.16-.17.12-.14.21-.16a2.42,2.42,0,0,1,.47,0Z"/></clipPath><clipPath id="clip-path-5" transform="translate(0 4.03)"><path class="cls-1" d="M35.5,13.68c.09-.1.18-.22.28-.32a1,1,0,0,1,.26-.18.38.38,0,0,0,.22-.37c0-.22.14-.34.39-.28a1.47,1.47,0,0,1,.34.15c.29.16.58.32.86.49.07.05.15.13.15.19s-.1.13-.17.15-.43.12-.63-.08-.33-.12-.53.06A3.63,3.63,0,0,1,36,14a.37.37,0,0,1-.53-.28"/></clipPath><clipPath id="clip-path-6" transform="translate(0 4.03)"><path class="cls-1" d="M34.63,12.52a1.65,1.65,0,0,0,.26.14c.09,0,.2,0,.29.08a.81.81,0,0,1,.31.15s0,.22-.05.3-.2.25-.36.16a.37.37,0,0,0-.45.07.37.37,0,0,1-.58-.14.48.48,0,0,1,.22-.63,1.69,1.69,0,0,1,.36-.13"/></clipPath><clipPath id="clip-path-7" transform="translate(0 4.03)"><path class="cls-1" d="M38.3,13.51c-.1-.08-.26-.14-.29-.25a.56.56,0,0,1,.1-.42,1.43,1.43,0,0,1,.56-.32c.09,0,.26.09.31.2a.52.52,0,0,1,0,.42.83.83,0,0,1-.63.37"/></clipPath><clipPath id="clip-path-8" transform="translate(0 4.03)"><path class="cls-1" d="M36.5,12a.53.53,0,0,1-.48.49.54.54,0,0,1-.52-.58.4.4,0,0,1,.39-.42c.26,0,.61.3.61.51"/></clipPath><clipPath id="clip-path-9" transform="translate(0 4.03)"><path class="cls-1" d="M37.77,9.54c-.11-.08-.26-.13-.26-.2a.71.71,0,0,1,.1-.46.54.54,0,0,1,.65-.3.41.41,0,0,1,.24.26.54.54,0,0,1-.12.39,3.5,3.5,0,0,1-.61.31"/></clipPath><clipPath id="clip-path-10" transform="translate(0 4.03)"><path class="cls-1" d="M36.77,9.54c-.11-.12-.22-.19-.25-.3a.64.64,0,0,1,0-.39.53.53,0,0,1,.85-.15.25.25,0,0,1,0,.38,5.71,5.71,0,0,1-.65.46"/></clipPath><clipPath id="clip-path-11" transform="translate(0 4.03)"><path class="cls-1" d="M34.33,12.52c-.19,0-.33-.07-.32-.33a.72.72,0,0,1,.67-.67c.22,0,.33.18.32.43a.67.67,0,0,1-.67.57"/></clipPath><clipPath id="clip-path-12" transform="translate(0 4.03)"><path class="cls-1" d="M38.69,9.54c.06.06.26.18.31.33s-.37.74-.58.65A.82.82,0,0,1,38,10c-.07-.24.26-.5.68-.5"/></clipPath><clipPath id="clip-path-13" transform="translate(0 4.03)"><path class="cls-1" d="M36,14.21c0,.41-.35.82-.59.78s-.42,0-.4-.37a.6.6,0,0,1,.71-.61c.11,0,.22.16.28.2"/></clipPath><clipPath id="clip-path-14" transform="translate(0 4.03)"><path class="cls-1" d="M42.73,14.5a1,1,0,0,1-.22-.37.6.6,0,0,1,.51-.62c.23,0,.47.08.48.42s-.28.58-.77.57"/></clipPath><clipPath id="clip-path-15" transform="translate(0 4.03)"><path class="cls-1" d="M37.27,10.05s.27.28.23.36A3.22,3.22,0,0,1,37,11c-.16-.16-.44-.32-.45-.49s.19-.57.77-.49"/></clipPath><clipPath id="clip-path-16" transform="translate(0 4.03)"><path class="cls-1" d="M40.5,10c.26.24.53.45.5.49a2.25,2.25,0,0,1-.63.5s-.39-.24-.37-.31a3.46,3.46,0,0,1,.5-.68"/></clipPath><clipPath id="clip-path-17" transform="translate(0 4.03)"><path class="cls-1" d="M38.19,9.54c.16.26.36.44.3.52a2.24,2.24,0,0,1-.57.47c-.15-.13-.45-.31-.41-.39s.36-.33.68-.6"/></clipPath><clipPath id="clip-path-18" transform="translate(0 4.03)"><path class="cls-1" d="M36.5,10.36a4,4,0,0,1-.66.66c-.06,0-.22-.22-.34-.35A4,4,0,0,1,36,10c.06,0,.24.15.5.32"/></clipPath></defs><title>hand-flower</title><path class="cls-2" d="M47.41,98.05l-.06-.74A42.7,42.7,0,0,0,75,83.75,42.38,42.38,0,0,0,54.7,14l.19-.72a43.2,43.2,0,0,1-7.48,84.77ZM28.26,95.5A43.45,43.45,0,0,1,0,55,42.91,42.91,0,0,1,24.51,16.11l.32.67A42.17,42.17,0,0,0,.74,55,42.67,42.67,0,0,0,28.52,94.8Z" transform="translate(0 4.03)"/><g class="cls-3"><rect class="cls-2" x="17.33" width="52.23" height="117.43"/></g><g class="cls-4"><rect class="cls-2" x="30.32" y="70.39" width="20.37" height="26.22"/></g><g class="cls-5"><rect class="cls-2" x="35.32" y="11.37" width="9.87" height="10.84"/></g><g class="cls-6"><rect class="cls-2" x="33.82" y="10.38" width="8.87" height="8.86"/></g><g class="cls-7"><rect class="cls-2" x="31.82" y="12.86" width="9.87" height="8.86"/></g><g class="cls-8"><rect class="cls-2" x="30.32" y="12.86" width="8.87" height="8.36"/></g><g class="cls-9"><rect class="cls-2" x="34.32" y="12.86" width="8.37" height="8.36"/></g><g class="cls-10"><rect class="cls-2" x="31.82" y="11.87" width="8.37" height="8.36"/></g><g class="cls-11"><rect class="cls-2" x="33.82" y="8.89" width="8.37" height="8.36"/></g><g class="cls-12"><rect class="cls-2" x="32.82" y="8.89" width="8.37" height="8.36"/></g><g class="cls-13"><rect class="cls-2" x="30.32" y="11.87" width="8.37" height="8.36"/></g><g class="cls-14"><rect class="cls-2" x="34.32" y="9.88" width="8.37" height="8.36"/></g><g class="cls-15"><rect class="cls-2" x="31.32" y="14.35" width="8.37" height="8.36"/></g><g class="cls-16"><rect class="cls-2" x="38.81" y="13.85" width="8.37" height="8.36"/></g><g class="cls-17"><rect class="cls-2" x="32.82" y="10.38" width="8.37" height="8.36"/></g><g class="cls-18"><rect class="cls-2" x="36.32" y="10.38" width="8.37" height="8.36"/></g><g class="cls-19"><rect class="cls-2" x="33.82" y="9.88" width="8.37" height="8.36"/></g><g class="cls-20"><rect class="cls-2" x="31.82" y="10.38" width="8.37" height="8.36"/></g></svg>